<svg t="1718775907381" class="icon" viewBox="0 0 1024 1024" version="1.1" xmlns="http://www.w3.org/2000/svg" p-id="16337" width="128" height="128">
  <path d="M896 768H512c-70.6 0-128-57.4-128-128V128c0-70.6 57.4-128 128-128h280.2C817.6 0 842 10.2 860 28.2L995.8 164c18 18 28.2 42.4 28.2 67.8V640c0 70.6-57.4 128-128 128zM128 256h192v96H128c-17.6 0-32 14.4-32 32v512c0 17.6 14.4 32 32 32h384c17.6 0 32-14.4 32-32v-64h96v64c0 70.6-57.4 128-128 128H128c-70.6 0-128-57.4-128-128V384c0-70.6 57.4-128 128-128z" p-id="16338"></path>
</svg>